<svg xmlns="http://www.w3.org/2000/svg" viewBox="0 0 512 512" width="512" height="512">
  <defs>
    <linearGradient id="bg" x1="0%" y1="0%" x2="100%" y2="100%">
      <stop offset="0%" style="stop-color:#1a1a2e"/>
      <stop offset="100%" style="stop-color:#16213e"/>
    </linearGradient>
  </defs>

  <!-- Background circle -->
  <circle cx="256" cy="256" r="250" fill="url(#bg)" stroke="#9333ea" stroke-width="4"/>

  <!-- Crossed microphone shafts (behind skull) -->
  <g stroke="#c084fc" stroke-width="10" stroke-linecap="round" fill="none">
    <line x1="130" y1="140" x2="310" y2="400"/>
    <line x1="382" y1="140" x2="202" y2="400"/>
  </g>
  <!-- Mic heads (pointing down) -->
  <g fill="#c084fc">
    <ellipse cx="318" cy="410" rx="18" ry="28" transform="rotate(-55 318 410)"/>
    <ellipse cx="194" cy="410" rx="18" ry="28" transform="rotate(55 194 410)"/>
  </g>

  <!-- Skull -->
  <ellipse cx="256" cy="250" rx="100" ry="110" fill="#e8dcc8"/>
  <ellipse cx="256" cy="310" rx="65" ry="38" fill="#e8dcc8"/>

  <!-- Eye sockets with glow -->
  <ellipse cx="218" cy="240" rx="30" ry="34" fill="#1a1a2e"/>
  <ellipse cx="294" cy="240" rx="30" ry="34" fill="#1a1a2e"/>
  <ellipse cx="218" cy="243" rx="15" ry="17" fill="#9333ea" opacity="0.8"/>
  <ellipse cx="294" cy="243" rx="15" ry="17" fill="#9333ea" opacity="0.8"/>

  <!-- Nose -->
  <path d="M248 278 L256 292 L264 278 Z" fill="#1a1a2e"/>

  <!-- Headphones (ear cups only, no band) -->
  <rect x="135" y="220" width="35" height="58" rx="12" fill="#9333ea"/>
  <rect x="342" y="220" width="35" height="58" rx="12" fill="#9333ea"/>
</svg>
